<svg xmlns="http://www.w3.org/2000/svg" width="1061.3" height="508.905" viewBox="0 0 1061.3 508.905">
  <g id="Group_36" data-name="Group 36" transform="translate(1156.858 -753.976) rotate(90)">
    <rect id="Rectangle_1555" data-name="Rectangle 1555" width="250.768" height="258.677" transform="translate(944.312 896.181)" stroke-width="4" stroke="#02bec8" stroke-linecap="round" stroke-linejoin="round" stroke-miterlimit="10" fill="none"/>
    <path id="Path_89" data-name="Path 89" d="M944.746,423.4V404.908l-162.49-162.49H763.4" transform="translate(19.746 412.229)" fill="none" stroke="#02bec8" stroke-linecap="round" stroke-linejoin="round" stroke-miterlimit="10" stroke-width="4"/>
    <path id="Path_90" data-name="Path 90" d="M777.994,223.235v71.69L934.58,455.284v22.639" transform="translate(61.27 357.642)" fill="none" stroke="#02bec8" stroke-linecap="round" stroke-linejoin="round" stroke-miterlimit="10" stroke-width="4"/>
    <path id="Path_91" data-name="Path 91" d="M776.669,197.6v18.866l43.392,43.391V378.711L967.213,525.864v24.525" transform="translate(57.499 284.69)" fill="none" stroke="#02bec8" stroke-linecap="round" stroke-linejoin="round" stroke-miterlimit="10" stroke-width="4"/>
    <path id="Path_92" data-name="Path 92" d="M765.527,104.439V153.49L886.268,274.231V649.659l143.38,143.38v22.639" transform="translate(25.792 19.582)" fill="none" stroke="#02bec8" stroke-linecap="round" stroke-linejoin="round" stroke-miterlimit="10" stroke-width="4"/>
    <path id="Path_93" data-name="Path 93" d="M778.773,120.137v9.433l96.215,96.215V601.213l145.266,145.266v24.7" transform="translate(63.484 64.254)" fill="none" stroke="#02bec8" stroke-linecap="round" stroke-linejoin="round" stroke-miterlimit="10" stroke-width="4"/>
    <path id="Path_94" data-name="Path 94" d="M809.246,138.307v16.979l18.866,18.866V557.126L966.775,695.789v25.469" transform="translate(150.203 115.96)" fill="none" stroke="#02bec8" stroke-linecap="round" stroke-linejoin="round" stroke-miterlimit="10" stroke-width="4"/>
    <path id="Path_95" data-name="Path 95" d="M845.628,123.467V512.1l45.277,66.03v183" transform="translate(253.736 73.73)" fill="none" stroke="#02bec8" stroke-linecap="round" stroke-linejoin="round" stroke-miterlimit="10" stroke-width="4"/>
    <path id="Path_96" data-name="Path 96" d="M936.315,197.63V229.7l-70.746,70.747V550.419" transform="translate(310.481 284.777)" fill="none" stroke="#02bec8" stroke-linecap="round" stroke-linejoin="round" stroke-miterlimit="10" stroke-width="4"/>
    <rect id="Rectangle_1563" data-name="Rectangle 1563" width="60.044" height="15.749" transform="translate(956.001 895.934) rotate(-90)" stroke-width="4" stroke="#02bec8" stroke-linecap="round" stroke-linejoin="round" stroke-miterlimit="10" fill="none"/>
    <rect id="Rectangle_1564" data-name="Rectangle 1564" width="59.509" height="15.749" transform="translate(987.775 895.934) rotate(-90)" stroke-width="4" stroke="#02bec8" stroke-linecap="round" stroke-linejoin="round" stroke-miterlimit="10" fill="none"/>
    <rect id="Rectangle_1565" data-name="Rectangle 1565" width="59.509" height="15.749" transform="translate(1016.397 895.916) rotate(-90)" stroke-width="4" stroke="#02bec8" stroke-linecap="round" stroke-linejoin="round" stroke-miterlimit="10" fill="none"/>
    <rect id="Rectangle_1566" data-name="Rectangle 1566" width="58.971" height="15.749" transform="translate(1047.418 895.833) rotate(-90)" stroke-width="4" stroke="#02bec8" stroke-linecap="round" stroke-linejoin="round" stroke-miterlimit="10" fill="none"/>
    <rect id="Rectangle_1567" data-name="Rectangle 1567" width="58.971" height="15.749" transform="translate(1076.04 895.815) rotate(-90)" stroke-width="4" stroke="#02bec8" stroke-linecap="round" stroke-linejoin="round" stroke-miterlimit="10" fill="none"/>
    <rect id="Rectangle_1568" data-name="Rectangle 1568" width="58.971" height="15.749" transform="translate(1108.749 895.743) rotate(-90)" stroke-width="4" stroke="#02bec8" stroke-linecap="round" stroke-linejoin="round" stroke-miterlimit="10" fill="none"/>
    <rect id="Rectangle_1569" data-name="Rectangle 1569" width="58.971" height="15.749" transform="translate(1137.37 895.725) rotate(-90)" stroke-width="4" stroke="#02bec8" stroke-linecap="round" stroke-linejoin="round" stroke-miterlimit="10" fill="none"/>
    <rect id="Rectangle_1570" data-name="Rectangle 1570" width="58.971" height="15.749" transform="translate(1168.391 896.181) rotate(-90)" stroke-width="4" stroke="#02bec8" stroke-linecap="round" stroke-linejoin="round" stroke-miterlimit="10" fill="none"/>
    <circle id="Ellipse_47" data-name="Ellipse 47" cx="13.744" cy="13.744" r="13.744" transform="translate(778.546 97.558)" stroke-width="4" stroke="#02bec8" stroke-linecap="round" stroke-linejoin="round" stroke-miterlimit="10" fill="none"/>
    <circle id="Ellipse_48" data-name="Ellipse 48" cx="13.744" cy="13.744" r="13.744" transform="translate(820.591 455.189)" stroke-width="4" stroke="#02bec8" stroke-linecap="round" stroke-linejoin="round" stroke-miterlimit="10" fill="none"/>
    <circle id="Ellipse_49" data-name="Ellipse 49" cx="13.744" cy="13.744" r="13.744" transform="translate(824.85 554.304)" stroke-width="4" stroke="#02bec8" stroke-linecap="round" stroke-linejoin="round" stroke-miterlimit="10" fill="none"/>
    <circle id="Ellipse_50" data-name="Ellipse 50" cx="13.744" cy="13.744" r="13.744" transform="translate(755.976 640.903)" stroke-width="4" stroke="#02bec8" stroke-linecap="round" stroke-linejoin="round" stroke-miterlimit="10" fill="none"/>
    <circle id="Ellipse_51" data-name="Ellipse 51" cx="13.744" cy="13.744" r="13.744" transform="translate(1086.131 170.433)" stroke-width="4" stroke="#02bec8" stroke-linecap="round" stroke-linejoin="round" stroke-miterlimit="10" fill="none"/>
    <circle id="Ellipse_52" data-name="Ellipse 52" cx="13.744" cy="13.744" r="13.744" transform="translate(1233.394 456.058)" stroke-width="4" stroke="#02bec8" stroke-linecap="round" stroke-linejoin="round" stroke-miterlimit="10" fill="none"/>
    <circle id="Ellipse_53" data-name="Ellipse 53" cx="13.744" cy="13.744" r="13.744" transform="translate(945.398 228.586)" stroke-width="4" stroke="#02bec8" stroke-linecap="round" stroke-linejoin="round" stroke-miterlimit="10" fill="none"/>
    <circle id="Ellipse_54" data-name="Ellipse 54" cx="13.744" cy="13.744" r="13.744" transform="translate(828.306 157.041)" stroke-width="4" stroke="#02bec8" stroke-linecap="round" stroke-linejoin="round" stroke-miterlimit="10" fill="none"/>
  </g>
</svg>
