<svg id="gear" xmlns="http://www.w3.org/2000/svg" width="78" height="78" viewBox="0 0 78 78">
  <defs>
    <style>
      .cls-1 {
        fill: #04e3ea;
      }
    </style>
  </defs>
  <path id="Trazado_64" data-name="Trazado 64" class="cls-1" d="M73.984,30.333h-7.3a2.8,2.8,0,0,1-1.982-4.783l5.16-5.158a4.019,4.019,0,0,0,0-5.681L63.288,8.135a4.112,4.112,0,0,0-5.681,0l-5.158,5.158a2.8,2.8,0,0,1-4.783-1.98v-7.3A4.02,4.02,0,0,0,43.651,0h-9.3a4.02,4.02,0,0,0-4.016,4.016v7.3a2.8,2.8,0,0,1-4.783,1.98L20.393,8.135a4.112,4.112,0,0,0-5.681,0L8.135,14.712a4.019,4.019,0,0,0,0,5.681l5.16,5.158a2.8,2.8,0,0,1-1.982,4.783h-7.3A4.02,4.02,0,0,0,0,34.349v9.3a4.02,4.02,0,0,0,4.016,4.017h7.3a2.8,2.8,0,0,1,1.982,4.783l-5.16,5.158a4.019,4.019,0,0,0,0,5.681l6.577,6.577a4.11,4.11,0,0,0,5.681,0l5.158-5.16a2.8,2.8,0,0,1,4.783,1.982v7.3A4.02,4.02,0,0,0,34.349,78h9.3a4.02,4.02,0,0,0,4.016-4.016v-7.3a2.8,2.8,0,0,1,4.783-1.982l5.158,5.16a4.112,4.112,0,0,0,5.681,0l6.577-6.577a4.019,4.019,0,0,0,0-5.681L64.7,52.449a2.8,2.8,0,0,1,1.983-4.783h7.3A4.02,4.02,0,0,0,78,43.651v-9.3A4.02,4.02,0,0,0,73.984,30.333Zm1.127,13.318a1.128,1.128,0,0,1-1.127,1.127h-7.3a5.691,5.691,0,0,0-4.024,9.715l5.16,5.158a1.127,1.127,0,0,1,0,1.595l-6.577,6.577a1.127,1.127,0,0,1-1.595,0l-5.158-5.16a5.691,5.691,0,0,0-9.715,4.024v7.3a1.128,1.128,0,0,1-1.127,1.127h-9.3a1.128,1.128,0,0,1-1.127-1.127v-7.3a5.6,5.6,0,0,0-3.513-5.258A5.756,5.756,0,0,0,27.5,60.98a5.612,5.612,0,0,0-3.988,1.681l-5.158,5.16a1.127,1.127,0,0,1-1.595,0l-6.577-6.577a1.127,1.127,0,0,1,0-1.595l5.16-5.158a5.69,5.69,0,0,0-4.024-9.714h-7.3a1.128,1.128,0,0,1-1.127-1.127v-9.3a1.128,1.128,0,0,1,1.127-1.127h7.3a5.691,5.691,0,0,0,4.024-9.715l-5.16-5.158a1.127,1.127,0,0,1,0-1.595l6.577-6.577a1.127,1.127,0,0,1,1.595,0l5.158,5.158a5.691,5.691,0,0,0,9.715-4.023v-7.3a1.128,1.128,0,0,1,1.127-1.127h9.3a1.128,1.128,0,0,1,1.128,1.127v7.3a5.691,5.691,0,0,0,9.715,4.024l5.158-5.158a1.127,1.127,0,0,1,1.595,0l6.577,6.577a1.127,1.127,0,0,1,0,1.595l-5.16,5.158a5.691,5.691,0,0,0,4.024,9.715h7.3a1.126,1.126,0,0,1,1.127,1.125Z"/>
  <path id="Trazado_65" data-name="Trazado 65" class="cls-1" d="M31,18A13,13,0,1,0,44,31,13.014,13.014,0,0,0,31,18Zm0,23.111A10.111,10.111,0,1,1,41.111,31,10.124,10.124,0,0,1,31,41.111Z" transform="translate(8 8)"/>
</svg>
