<svg xmlns="http://www.w3.org/2000/svg" data-name="Layer 1" viewBox="0 0 362.08 53.21">
  <path fill="#fff" stroke="#fff" stroke-miterlimit="10" stroke-width="2.7" d="M1.94 51.25a2.26 2.26 0 01-.59-1.58V3.6a2.28 2.28 0 01.59-1.59 2.43 2.43 0 013.18 0 2.28 2.28 0 01.59 1.59v46.07a2.26 2.26 0 01-.59 1.58 2.41 2.41 0 01-3.18 0zm62-49.34a2.16 2.16 0 01.49 1.69v46.07a2.26 2.26 0 01-.59 1.58 1.89 1.89 0 01-1.59.6 2.13 2.13 0 01-1.85-1.09L29.49 9.05v40.62a2.7 2.7 0 01-.5 1.58 1.68 1.68 0 01-1.48.6 2.25 2.25 0 01-1.59-.6 2.55 2.55 0 01-.49-1.68v-46a2.24 2.24 0 01.59-1.59 2.38 2.38 0 013.57.5L60.4 44.22V3.6a2.28 2.28 0 01.59-1.59 1.73 1.73 0 011.49-.59 1.49 1.49 0 011.49.49zm33.12 49.34a2.4 2.4 0 01-.6-1.58V5.48H80.12a2.66 2.66 0 01-1.49-.5 1.54 1.54 0 01-.5-1.38 2.14 2.14 0 01.5-1.39 2.36 2.36 0 011.49-.59h37a2.35 2.35 0 011.39.49 1.92 1.92 0 010 2.77 1.53 1.53 0 01-1.39.5h-16.3v44.09a2.21 2.21 0 01-.59 1.58 1.89 1.89 0 01-1.59.6 1.47 1.47 0 01-1.58-.4zm121.07-1.19a1.61 1.61 0 01-.59 1.29 2.38 2.38 0 01-1.39.5 2.1 2.1 0 01-1.88-1.19l-9.51-15.36a12.92 12.92 0 00-4.17-4.46 12.54 12.54 0 00-5.94-1.19h-9.71v19.82a2.71 2.71 0 01-.59 1.68 2.41 2.41 0 01-3.18 0 2.71 2.71 0 01-.59-1.68V3.76a2 2 0 01.69-1.58 2.21 2.21 0 011.69-.59h17.63c5.25 0 9.32 1.18 12.09 3.56s4.26 5.85 4.26 10.4a12.46 12.46 0 01-3.59 9.55c-2.37 2.37-5.84 3.76-10.2 4.16a7.52 7.52 0 013.07 1.88 17.26 17.26 0 012.87 3.67l8.82 14.06c0 .3.2.8.2 1.19zm-18-24c8.22.03 12.22-3.44 12.22-10.48 0-3.46-1-5.94-3.07-7.62s-5.15-2.48-9.21-2.48h-15.33v20.71h15.36zm46.76 25.16a2.44 2.44 0 01-.59-1.58V5.48h-16.38a2.69 2.69 0 01-1.49-.5 1.53 1.53 0 01-.49-1.38 2.19 2.19 0 01.49-1.39 2 2 0 011.49-.5h37a2.33 2.33 0 011.38.5 1.9 1.9 0 010 2.77 1.52 1.52 0 01-1.38.5h-16.29v44.09a2.22 2.22 0 01-.6 1.58 1.87 1.87 0 01-1.58.6 1.82 1.82 0 01-1.59-.5zm84-.29a1.9 1.9 0 01-.69-1.39v-46a2.24 2.24 0 01.59-1.59 1.91 1.91 0 011.56-.53 2.26 2.26 0 011.58.59 2.69 2.69 0 01.6 1.69v44.06h24.17a2.66 2.66 0 011.49.5 1.55 1.55 0 01.49 1.39 2.16 2.16 0 01-.49 1.38 1.94 1.94 0 01-1.49.5h-26.35a2.66 2.66 0 01-1.47-.57zM134.71 1.62h27.44a2 2 0 010 4h-27.44a2 2 0 010-4zm-.1 22.58h27.44a2 2 0 010 4h-27.44a2 2 0 01-2-2 1.93 1.93 0 012-2zm0 23.68h27.44a2 2 0 010 4h-27.44a2 2 0 010-4zm149.9-46.26h27.45a2 2 0 010 4h-27.45a2 2 0 010-4zm-.16 22.58h27.45a2 2 0 010 4h-27.45a2 2 0 01-2-2 2.06 2.06 0 012-2zm.1 23.68h27.45a2 2 0 010 4h-27.49a2 2 0 010-4z"/>
</svg>