<svg xmlns="http://www.w3.org/2000/svg" width="1094" height="381.294" viewBox="0 0 1094 381.294">
  <g id="Layer_2" data-name="Layer 2" transform="translate(2 2)">
    <path id="Path_83" data-name="Path 83" d="M702.348,711.994v-69.2s-1.454-4.361,5.235-4.361h64.258v-5.816l4.942-4.942h50.884v-30.53H790.158s-7.851-2.036-9.886-4.944h-22.1l-3.489,4.944H731.134V530.27H795.1v-6.106s-6.4-2.035-6.687-7.851,0-18.027,0-18.027l-27.331-2.617v7.27H733.169v-6.4H690.136v-6.4H677.343v4.362H651.755v-4.071H637.509v18.609H613.085V490.435H560.457v6.106H518.588v3.488H484.86v-4.651H428.451s.872,13.956-11.629,13.956-12.649-12.647-12.649-12.647H389.49l-3.2,3.053H301.1l-4.361-4.361H275.222l-2.326,3.489H241.783l-2.907-2.907h-72.69v2.432H144.227l-14.546,14.3H102.911v22.736h16.38v69.6s13.908,1.465,13.664,11.226c0,0,1.221,12.69-12.935,12.2v28.554h5.369v42.445" transform="translate(-94.078 -490.144)" fill="none" stroke="#02bdc8" stroke-linecap="round" stroke-linejoin="round" stroke-miterlimit="10" stroke-width="4"/>
    <path id="Path_84" data-name="Path 84" d="M127.8,640.654h38.522V777.939H96.543v25.789s152.269.829,152.269,0v-4.794h36.347v4.3h79.964v-3.636h34.7v4.3h23.791S421.3,791,433.853,790.013c0,0,11.729-.992,11.729,11.731h21.644v-2.149h38.659v-3.3h51.547v-4.3h18.835v17.183h9.252V804.22h25.443v3.635H624.18V796.29H752.386v7.93H797.22s-8.486-18.5-4.852-25.443h-7.93V734.5l-7.6-5.618V713.022s.99-7.93,8.59-9.914v-3.964s.565-1.349,3.663-1.242h1.5s1.205-.507,1.205-3V671.543s.793-3.669-3.358-3.669H776.944l-2.221-1.835-.193-4.152H756.957v48.255S752.014,721,743.1,724H719.642l-7.56,15.8-4.071,1.162-15.992-7.268.291-6.979,3.2-6.106s-14.829-12.5-11.631-36.344c0,0,2.023-27.015,21.01-31.376" transform="translate(-96.543 -431.884)" fill="none" stroke="#02bdc8" stroke-linecap="round" stroke-linejoin="round" stroke-miterlimit="10" stroke-width="4"/>
    <path id="Path_85" data-name="Path 85" d="M341.507,557.835v86.488h-31.1V749.708H411.476v-3.646H479.71V633.339h13.031V587.184h-14.2V566.769H444.366v-2.875H423.781v-5.948h-82.8" transform="translate(-13.758 -463.942)" fill="none" stroke="#02bdc8" stroke-linecap="round" stroke-linejoin="round" stroke-miterlimit="10" stroke-width="4"/>
    <g id="Path_86" data-name="Path 86" transform="translate(-61.556 -473.44)" fill="none" stroke-linecap="round" stroke-linejoin="round" stroke-miterlimit="10">
      <path d="M186.929,554.986V692.607l26.926,17.95H295.38V553.491L275.186,533.3H207.871S187.677,555.735,186.929,554.986Z" stroke="none"/>
      <path d="M 207.8711853027344 533.2958984375 C 207.8711853027344 533.2958984375 188.3343505859375 555.0040893554688 186.9813537597656 555.0040893554688 C 186.9587707519531 555.0040893554688 186.9412536621094 554.998046875 186.9289855957031 554.9857788085938 L 186.9289855957031 692.6068115234375 L 213.8550720214844 710.5570678710938 L 295.3795471191406 710.5570678710938 L 295.3795471191406 553.4906005859375 L 275.1864013671875 533.2958984375 L 207.8711853027344 533.2958984375 M 207.8711853027344 529.2958984375 L 275.1864013671875 529.2958984375 C 276.247314453125 529.2958984375 277.2648010253906 529.7173461914062 278.0149536132812 530.4675903320312 L 298.2080688476562 550.6622924804688 C 298.9581909179688 551.4124145507812 299.3795471191406 552.4298095703125 299.3795471191406 553.4906005859375 L 299.3795471191406 710.5570678710938 C 299.3795471191406 712.7661743164062 297.5886840820312 714.5570678710938 295.3795471191406 714.5570678710938 L 213.8550720214844 714.5570678710938 C 213.0653991699219 714.5570678710938 212.2933959960938 714.3233032226562 211.6363220214844 713.8853149414062 L 184.7102355957031 695.9349975585938 C 183.5973815917969 695.1931762695312 182.9289855957031 693.9442138671875 182.9289855957031 692.6068115234375 L 182.9289855957031 554.9857788085938 C 182.9289855957031 553.3833618164062 183.8848571777344 551.9374389648438 185.3551940917969 551.308349609375 C 186.1234436035156 550.6525268554688 188.5807800292969 548.35205078125 195.88330078125 540.48046875 C 200.5336303710938 535.4676513671875 204.8548583984375 530.66796875 204.89794921875 530.6200561523438 C 205.6565246582031 529.7772216796875 206.7372131347656 529.2958984375 207.8711853027344 529.2958984375 Z" stroke="none" fill="#02bdc8"/>
    </g>
    <g id="Rectangle_1549" data-name="Rectangle 1549" transform="translate(792.002 10.498)" fill="none" stroke="#02bdc8" stroke-linecap="round" stroke-linejoin="round" stroke-miterlimit="10" stroke-width="4">
      <rect width="93.191" height="78.385" rx="2.403" stroke="none"/>
      <rect x="-2" y="-2" width="97.191" height="82.385" rx="4.403" fill="none"/>
    </g>
    <g id="Rectangle_1550" data-name="Rectangle 1550" transform="translate(813.911 24.493)" fill="none" stroke="#02bdc8" stroke-linecap="round" stroke-linejoin="round" stroke-miterlimit="10" stroke-width="4">
      <rect width="49.626" height="50.521" rx="12.141" stroke="none"/>
      <rect x="-2" y="-2" width="53.626" height="54.521" rx="14.141" fill="none"/>
    </g>
    <g id="Ellipse_46" data-name="Ellipse 46" transform="translate(826.077 38.201)" fill="none" stroke="#02bdc8" stroke-linecap="round" stroke-linejoin="round" stroke-miterlimit="10" stroke-width="4">
      <ellipse cx="11.991" cy="11.991" rx="11.991" ry="11.991" stroke="none"/>
      <ellipse cx="11.991" cy="11.991" rx="13.991" ry="13.991" fill="none"/>
    </g>
    <path id="Path_87" data-name="Path 87" d="M674.221,554.311s-.4,11.088,10.661,10.661c10.9-.419,10.217-10.911,10.217-10.911" transform="translate(127.067 -459.04)" fill="none" stroke="#02bdc8" stroke-linecap="round" stroke-linejoin="round" stroke-miterlimit="10" stroke-width="4"/>
    <g id="Rectangle_1552" data-name="Rectangle 1552" transform="translate(787.818 138.793)" fill="none" stroke="#02bdc8" stroke-linecap="round" stroke-linejoin="round" stroke-miterlimit="10" stroke-width="4">
      <rect width="153.172" height="231.082" rx="1.268" stroke="none"/>
      <rect x="-2" y="-2" width="157.172" height="235.082" rx="3.268" fill="none"/>
    </g>
    <line id="Line_3" data-name="Line 3" x2="153.296" transform="translate(787.486 157.468)" fill="none" stroke="#02bdc8" stroke-linecap="round" stroke-miterlimit="10" stroke-width="4"/>
    <g id="Path_88" data-name="Path 88" transform="translate(181.31 -451.589)" fill="none" stroke-linecap="round" stroke-linejoin="round" stroke-miterlimit="10">
      <path d="M876.428,597.507v-7.759H814.353V716.226h34.141V740.28h24.83V713.9h14.743v-24.83H906.69V626.993Z" stroke="none"/>
      <path d="M 814.3530883789062 589.7474365234375 L 814.3530883789062 716.2258911132812 L 848.4945678710938 716.2258911132812 L 848.4945678710938 740.2799072265625 L 873.3245239257812 740.2799072265625 L 873.3245239257812 713.8981323242188 L 888.0672607421875 713.8981323242188 L 888.0672607421875 689.0680541992188 L 906.68994140625 689.0680541992188 L 906.68994140625 626.9925537109375 L 876.428466796875 597.5068969726562 L 876.428466796875 589.7474365234375 L 814.3530883789062 589.7474365234375 M 814.3530883789062 585.7474365234375 L 876.428466796875 585.7474365234375 C 878.6375732421875 585.7474365234375 880.428466796875 587.5382690429688 880.428466796875 589.7474365234375 L 880.428466796875 595.8195190429688 L 909.4813842773438 624.1276245117188 C 910.254150390625 624.8805541992188 910.68994140625 625.9136962890625 910.68994140625 626.9925537109375 L 910.68994140625 689.0680541992188 C 910.68994140625 691.2772216796875 908.8990478515625 693.0680541992188 906.68994140625 693.0680541992188 L 892.0672607421875 693.0680541992188 L 892.0672607421875 713.8981323242188 C 892.0672607421875 716.1072998046875 890.2764282226562 717.8981323242188 888.0672607421875 717.8981323242188 L 877.3245239257812 717.8981323242188 L 877.3245239257812 740.2799072265625 C 877.3245239257812 742.489013671875 875.5336303710938 744.2799072265625 873.3245239257812 744.2799072265625 L 848.4945678710938 744.2799072265625 C 846.285400390625 744.2799072265625 844.4945678710938 742.489013671875 844.4945678710938 740.2799072265625 L 844.4945678710938 720.2258911132812 L 814.3530883789062 720.2258911132812 C 812.1439819335938 720.2258911132812 810.3530883789062 718.43505859375 810.3530883789062 716.2258911132812 L 810.3530883789062 589.7474365234375 C 810.3530883789062 587.5382690429688 812.1439819335938 585.7474365234375 814.3530883789062 585.7474365234375 Z" stroke="none" fill="#02bdc8"/>
    </g>
    <g id="Rectangle_1553" data-name="Rectangle 1553" transform="translate(1006.001 163.16)" fill="none" stroke="#02bdc8" stroke-linecap="round" stroke-linejoin="round" stroke-miterlimit="10" stroke-width="4">
      <rect width="50.645" height="38.326" stroke="none"/>
      <rect x="-2" y="-2" width="54.645" height="42.326" fill="none"/>
    </g>
    <g id="Rectangle_1554" data-name="Rectangle 1554" transform="translate(1006.139 218.433)" fill="none" stroke="#02bdc8" stroke-linecap="round" stroke-linejoin="round" stroke-miterlimit="10" stroke-width="4">
      <rect width="51.463" height="35.144" stroke="none"/>
      <rect x="-2" y="-2" width="55.463" height="39.144" fill="none"/>
    </g>
  </g>
</svg>
