<svg xmlns="http://www.w3.org/2000/svg" width="1100.017" height="580.463" viewBox="0 0 1100.017 580.463">
  <g id="Group_34" data-name="Group 34" transform="translate(-488.169 -164.259)">
    <rect id="Rectangle_1531" data-name="Rectangle 1531" width="292.256" height="568.454" rx="12.488" transform="translate(490.169 173.732)" fill="none" stroke="#02c1cb" stroke-linejoin="round" stroke-miterlimit="10" stroke-width="4"/>
    <rect id="Rectangle_1532" data-name="Rectangle 1532" width="252.511" height="444.908" transform="translate(508.115 215.156)" fill="none" stroke="#02c1cb" stroke-linejoin="round" stroke-miterlimit="10" stroke-width="4"/>
    <rect id="Rectangle_1533" data-name="Rectangle 1533" width="292.256" height="568.454" rx="12.488" transform="translate(852.492 168.995)" fill="none" stroke="#02c1cb" stroke-linejoin="round" stroke-miterlimit="10" stroke-width="4"/>
    <rect id="Rectangle_1534" data-name="Rectangle 1534" width="125.007" height="132.15" rx="7.758" transform="translate(881.662 198.467)" fill="none" stroke="#02c1cb" stroke-linejoin="round" stroke-miterlimit="10" stroke-width="4"/>
    <rect id="Rectangle_1535" data-name="Rectangle 1535" width="28.789" height="11.759" rx="0.071" transform="translate(1231.245 435.141)" fill="none" stroke="#02c1cb" stroke-linejoin="round" stroke-miterlimit="10" stroke-width="4"/>
    <rect id="Rectangle_1536" data-name="Rectangle 1536" width="12.657" height="292.998" rx="0.526" transform="translate(1239.74 447.023)" fill="none" stroke="#02c1cb" stroke-linejoin="round" stroke-miterlimit="10" stroke-width="4"/>
    <path id="Path_80" data-name="Path 80" d="M927.307,272.9v46.555a15.348,15.348,0,0,1-15.125,15.564H881.434a15.35,15.35,0,0,1-15.125-15.564V273.34h60.964" transform="translate(348.031 99.77)" fill="none" stroke="#02c1cb" stroke-linejoin="round" stroke-miterlimit="10" stroke-width="4"/>
    <rect id="Rectangle_1537" data-name="Rectangle 1537" width="34.211" height="27.455" transform="translate(1227.663 345.298)" fill="none" stroke="#02c1cb" stroke-linejoin="round" stroke-miterlimit="10" stroke-width="4"/>
    <path id="Path_81" data-name="Path 81" d="M1.13,0,42.633.5,42.56,6.656l11.024.131L53.657.628,68.249.8l17.3,17.718-.6,50.259-32.1-.383.05-4.216-11.348-.135L41.5,67.936,0,67.441S1.132-.188,1.13,0Z" transform="matrix(1, -0.017, 0.017, 1, 1206.849, 169.142)" fill="none" stroke="#02c1cb" stroke-linejoin="round" stroke-miterlimit="10" stroke-width="4"/>
    <rect id="Rectangle_1543" data-name="Rectangle 1543" width="161.12" height="259.617" rx="2.412" transform="translate(1356.588 166.259)" fill="none" stroke="#02c1cb" stroke-linejoin="round" stroke-miterlimit="10" stroke-width="4"/>
    <rect id="Rectangle_1544" data-name="Rectangle 1544" width="53.04" height="18.277" transform="translate(1412.014 425.959)" fill="none" stroke="#02c1cb" stroke-linejoin="round" stroke-width="4"/>
    <rect id="Rectangle_1545" data-name="Rectangle 1545" width="68.395" height="29.597" transform="translate(1517.708 212.499)" stroke-width="4" stroke="#02c1cb" stroke-linecap="round" stroke-linejoin="round" fill="none"/>
    <rect id="Rectangle_1546" data-name="Rectangle 1546" width="68.395" height="19.658" transform="translate(1517.792 291.489)" stroke-width="4" stroke="#02c1cb" stroke-linecap="round" stroke-linejoin="round" fill="none"/>
    <line id="Line_1" data-name="Line 1" x2="0.84" y2="297.349" transform="translate(1445.532 445.367)" fill="none" stroke="#02c1cb" stroke-linecap="round" stroke-miterlimit="10" stroke-width="4"/>
    <line id="Line_2" data-name="Line 2" x1="0.64" y1="297.349" transform="translate(1432.875 445.367)" fill="none" stroke="#02c1cb" stroke-linecap="round" stroke-miterlimit="10" stroke-width="4"/>
    <circle id="Ellipse_41" data-name="Ellipse 41" cx="23.882" cy="23.882" r="23.882" transform="translate(610.894 676.692)" fill="none" stroke="#02c1cb" stroke-linejoin="round" stroke-miterlimit="10" stroke-width="4"/>
  </g>
</svg>
