<svg xmlns="http://www.w3.org/2000/svg" width="78" height="77.972" viewBox="0 0 78 77.972">
  <defs>
    <style>
      .cls-1 {
        fill: #03eaef;
      }
    </style>
  </defs>
  <g id="_006-technical-support" data-name="006-technical-support" transform="translate(0 -0.085)">
    <g id="Grupo_9" data-name="Grupo 9" transform="translate(0 0.085)">
      <path id="Trazado_58" data-name="Trazado 58" class="cls-1" d="M75.339,60.712h0L58.813,44.189a1.3,1.3,0,0,0-1.836,0L53.3,47.867,48.71,43.276l4.731-4.726A19.469,19.469,0,0,0,76.086,13.029a1.3,1.3,0,0,0-2.141-.486l-9.217,9.21-6.881-2.294-2.294-6.881,9.21-9.217a1.3,1.3,0,0,0-.486-2.141,19.473,19.473,0,0,0-25.53,22.636l-4.726,4.731L17.473,12.026l-.519-5.6A1.3,1.3,0,0,0,16.2,5.368L6.1.785a1.3,1.3,0,0,0-1.454.26L.986,4.706A1.3,1.3,0,0,0,.726,6.16l4.583,10.1a1.3,1.3,0,0,0,1.063.757l5.6.519L28.524,34.085,2.657,59.949a9.1,9.1,0,0,0,0,12.852l1.831,1.83a9.1,9.1,0,0,0,12.852,0L43.213,48.773,47.8,53.362l-3.678,3.679a1.3,1.3,0,0,0,0,1.836L60.65,75.4a9.1,9.1,0,0,0,12.852,0l1.836-1.836A9.088,9.088,0,0,0,75.339,60.712ZM13.467,15.368a1.3,1.3,0,0,0-.8-.375L7.356,14.5,3.462,5.91,5.85,3.52l8.594,3.895.489,5.311a1.3,1.3,0,0,0,.374.8L32.185,30.417l-1.827,1.827ZM15.509,72.8a6.5,6.5,0,0,1-9.186,0L4.492,70.971a6.5,6.5,0,0,1,0-9.186L41.1,25.175a1.3,1.3,0,0,0,.336-1.254A16.906,16.906,0,0,1,61.365,3.076L53.147,11.3a1.3,1.3,0,0,0-.313,1.329l2.752,8.257a1.3,1.3,0,0,0,.822.82l8.257,2.751a1.3,1.3,0,0,0,1.327-.312l8.229-8.218A16.869,16.869,0,0,1,53.376,35.855a1.287,1.287,0,0,0-1.253.336Zm29.54-25.865,1.475-1.475.351-.351,4.6,4.591L49.64,51.533ZM73.5,71.728v.005l-1.836,1.83a6.5,6.5,0,0,1-9.18,0L46.88,57.959,57.9,46.942,73.5,62.548A6.491,6.491,0,0,1,73.5,71.728Z" transform="translate(0 -0.085)"/>
    </g>
  </g>
</svg>
