<svg id="_005-time-management" data-name="005-time-management" xmlns="http://www.w3.org/2000/svg" width="78" height="78" viewBox="0 0 78 78">
  <defs>
    <style>
      .cls-1 {
        fill: #03eaef;
      }
    </style>
  </defs>
  <g id="Grupo_11" data-name="Grupo 11">
    <g id="Grupo_10" data-name="Grupo 10">
      <path id="Trazado_59" data-name="Trazado 59" class="cls-1" d="M39,0A39,39,0,1,0,78,39,39,39,0,0,0,39,0Zm0,75.4A36.4,36.4,0,1,1,75.4,39,36.4,36.4,0,0,1,39,75.4Z"/>
      <path id="Trazado_60" data-name="Trazado 60" class="cls-1" d="M168.571,136.649a1.3,1.3,0,0,0-1.776-.476l-21.527,12.436-.026-.029c-.117-.13-.229-.26-.355-.378a6.573,6.573,0,0,0-.536-.442c-.157-.121-.313-.239-.482-.344-.068-.043-.124-.1-.194-.139-.12-.069-.25-.108-.373-.169q-.277-.144-.568-.26a6.391,6.391,0,0,0-.65-.2c-.185-.049-.368-.1-.559-.13a6.424,6.424,0,0,0-.742-.075,3.363,3.363,0,0,0-.357-.042c-.064,0-.122.017-.185.018a6.785,6.785,0,0,0-.7.072c-.2.029-.408.053-.607.1-.061.014-.124.014-.186.03-.147.04-.278.109-.42.159a5.4,5.4,0,0,0-.588.221,6.384,6.384,0,0,0-.615.333c-.152.091-.307.178-.451.281a6.439,6.439,0,0,0-.573.473,4.556,4.556,0,0,0-.373.35c-.051.055-.113.1-.163.152l-12.5-7.215a1.3,1.3,0,0,0-1.315,2.243l.015.009,12.5,7.216c-.044.13-.059.26-.094.4-.049.185-.1.368-.13.559a6.336,6.336,0,0,0-.075.737c0,.122-.036.239-.036.364,0,.065.017.13.02.189a6.579,6.579,0,0,0,.069.692c.03.209.056.417.1.62.014.06.013.122.03.182.038.143.107.272.155.411a6.282,6.282,0,0,0,.225.6,6,6,0,0,0,.328.6c.094.157.182.316.287.464a6.629,6.629,0,0,0,.465.564c.117.13.231.26.357.381a6.344,6.344,0,0,0,.53.437c.16.124.318.243.49.351a2.232,2.232,0,0,0,.19.13,6.859,6.859,0,0,0,.666.329c.025.01.047.025.072.035a6.51,6.51,0,0,0,1.1.343c.074.016.147.03.221.043a6.293,6.293,0,0,0,1.18.13,6.473,6.473,0,0,0,1.17-.12c.1-.017.19-.035.283-.056s.161-.027.242-.048c.147-.04.278-.109.42-.159a5.4,5.4,0,0,0,.588-.221,6.387,6.387,0,0,0,.615-.333c.152-.091.307-.178.451-.281a6.44,6.44,0,0,0,.573-.473,4.557,4.557,0,0,0,.373-.35,6.369,6.369,0,0,0,.445-.538c.12-.157.238-.313.343-.481.043-.068.1-.124.139-.194.069-.12.108-.25.169-.373a5.079,5.079,0,0,0,.461-1.218c.049-.185.1-.368.13-.559a6.329,6.329,0,0,0,.075-.737c0-.122.036-.239.036-.364,0-.065-.017-.13-.019-.189a6.584,6.584,0,0,0-.069-.692c-.03-.209-.056-.417-.1-.62-.014-.06-.013-.122-.03-.182-.034-.13-.095-.239-.136-.363L168.1,138.424A1.3,1.3,0,0,0,168.571,136.649Zm-24.276,16.5q-.007.191-.033.381h0a3.463,3.463,0,0,1-.086.381c-.034.121-.068.238-.11.354a3.632,3.632,0,0,1-.17.377c-.055.109-.109.218-.173.321s-.139.2-.213.3a4,4,0,0,1-.26.315c-.073.077-.152.146-.231.217a3.832,3.832,0,0,1-.337.277c-.088.064-.183.117-.277.173a4.078,4.078,0,0,1-.364.2,3.69,3.69,0,0,1-.351.13c-.121.042-.24.085-.367.114a3.684,3.684,0,0,1-.372.061,3.819,3.819,0,0,1-.408.042,3.414,3.414,0,0,1-.346-.012,3.849,3.849,0,0,1-.428-.043c-.117-.019-.231-.051-.347-.081a3.411,3.411,0,0,1-.378-.118c-.118-.047-.235-.1-.35-.159a3.6,3.6,0,0,1-.328-.178,6.01,6.01,0,0,1-.617-.476c-.086-.082-.163-.172-.241-.26a3.759,3.759,0,0,1-.251-.306c-.073-.1-.13-.211-.2-.32a3.55,3.55,0,0,1-.173-.319,3.637,3.637,0,0,1-.143-.382c-.036-.108-.074-.215-.1-.326q-.043-.193-.066-.39c-.017-.124-.033-.247-.038-.374a3.724,3.724,0,0,1,.01-.381q.01-.2.039-.39a3.466,3.466,0,0,1,.086-.381c.034-.121.068-.239.111-.354a3.853,3.853,0,0,1,.169-.377c.056-.109.111-.218.174-.321s.139-.2.213-.3a4.012,4.012,0,0,1,.26-.315c.073-.077.152-.146.231-.216a3.646,3.646,0,0,1,.337-.278c.088-.064.183-.117.277-.173a4.081,4.081,0,0,1,.364-.2,3.34,3.34,0,0,1,.351-.13c.118-.039.228-.078.346-.107a3.88,3.88,0,0,1,.884-.117h.034c.012,0,.059.008.088.009a3.771,3.771,0,0,1,.818.108c.094.022.181.056.272.085a3.96,3.96,0,0,1,.616.26,2.745,2.745,0,0,1,.26.144,6.018,6.018,0,0,1,.618.476c.086.082.162.172.24.26a3.764,3.764,0,0,1,.251.305c.073.1.13.212.2.32a2.923,2.923,0,0,1,.173.318,3.638,3.638,0,0,1,.143.382c.036.108.074.214.1.326q.043.193.066.39c.017.123.033.247.038.374A3.724,3.724,0,0,1,144.295,153.149Z" transform="translate(-101.426 -113.899)"/>
    </g>
  </g>
</svg>
