<svg xmlns="http://www.w3.org/2000/svg" width="80.45" height="80.45" viewBox="0 0 80.45 80.45">
  <defs>
    <style>
      .cls-1 {
        isolation: isolate;
      }

      .cls-2 {
        fill: #03eaef;
      }
    </style>
  </defs>
  <g id="_001-worldwide" data-name="001-worldwide" class="cls-1" transform="translate(-0.001 0)">
    <g id="Grupo_4" data-name="Grupo 4" transform="translate(10.725 10.727)">
      <g id="Grupo_3" data-name="Grupo 3" transform="translate(6 6.072)">
        <path id="Trazado_55" data-name="Trazado 55" class="cls-2" d="M102.924,69.773a23.524,23.524,0,0,0-21.663-4.93c-.547.151-1.087.328-1.621.517a23.469,23.469,0,0,0-9.028,5.788q-.442.455-.855.937a23.51,23.51,0,0,0,23.98,38.1c.547-.151,1.087-.328,1.621-.517a23.468,23.468,0,0,0,9.023-5.787q.442-.455.855-.937A23.51,23.51,0,0,0,102.924,69.773ZM72.356,72.431h0c.474-.476.962-.932,1.478-1.358s1.05-.825,1.6-1.2c.047-.031.091-.064.137-.1.526-.353,1.069-.679,1.622-.983.076-.042.15-.084.225-.125.543-.29,1.1-.554,1.664-.8.092-.038.183-.078.275-.115.544-.224,1.1-.427,1.66-.6A20.637,20.637,0,0,0,76.833,74.3a25.939,25.939,0,0,1-4.56-1.779C72.3,72.488,72.328,72.46,72.356,72.431Zm-1.521,1.724a27.459,27.459,0,0,0,5.334,2.167A40.025,40.025,0,0,0,74.7,86.445h-8.53A21.3,21.3,0,0,1,70.835,74.155Zm0,26.716a21.294,21.294,0,0,1-4.664-12.289H74.7A40.032,40.032,0,0,0,76.169,98.7,27.46,27.46,0,0,0,70.835,100.871Zm8.522,6.4-.278-.119q-.846-.362-1.662-.8c-.076-.041-.152-.084-.228-.126-.552-.3-1.1-.629-1.62-.982l-.14-.1c-.547-.375-1.081-.772-1.594-1.2s-1-.883-1.477-1.358l-.088-.084a26.016,26.016,0,0,1,4.56-1.78,20.631,20.631,0,0,0,4.186,7.142C80.456,107.694,79.9,107.5,79.358,107.272Zm7.07,1.507c-3.013-.63-5.691-3.9-7.454-8.583a38.739,38.739,0,0,1,7.454-.9Zm0-11.616a40.8,40.8,0,0,0-8.137.992,37.578,37.578,0,0,1-1.453-9.573h9.59Zm0-10.718h-9.59a37.566,37.566,0,0,1,1.453-9.573,40.8,40.8,0,0,0,8.137.992Zm0-10.718a38.747,38.747,0,0,1-7.454-.89c1.763-4.683,4.441-7.953,7.454-8.583Zm17.73-1.571a21.294,21.294,0,0,1,4.664,12.289h-8.53a40.033,40.033,0,0,0-1.467-10.122A27.451,27.451,0,0,0,104.158,74.155Zm-8.522-6.4.278.119q.846.362,1.662.8c.076.041.152.084.228.126.552.3,1.1.629,1.62.982l.14.1c.547.375,1.081.772,1.594,1.2s1,.883,1.477,1.358l.088.084a26.015,26.015,0,0,1-4.56,1.78,20.631,20.631,0,0,0-4.186-7.142C94.537,67.333,95.091,67.532,95.635,67.755Zm-7.07-1.5c3.012.63,5.691,3.9,7.454,8.583a38.747,38.747,0,0,1-7.454.89Zm0,11.611a40.8,40.8,0,0,0,8.137-.992,37.578,37.578,0,0,1,1.453,9.573h-9.59Zm0,10.718h9.59A37.565,37.565,0,0,1,96.7,98.155a40.8,40.8,0,0,0-8.137-.992Zm0,20.2V99.3a38.747,38.747,0,0,1,7.454.89C94.256,104.873,91.578,108.143,88.565,108.779Zm14.072-6.184h0c-.474.476-.962.932-1.478,1.358s-1.05.825-1.6,1.2c-.047.031-.091.064-.137.1-.526.353-1.069.679-1.622.983-.076.042-.15.084-.225.125-.543.29-1.1.554-1.664.8-.092.038-.183.078-.275.115-.544.224-1.1.427-1.66.6a20.638,20.638,0,0,0,4.186-7.141,25.937,25.937,0,0,1,4.56,1.779C102.695,102.538,102.665,102.566,102.637,102.595Zm1.521-1.724A27.461,27.461,0,0,0,98.824,98.7a40.027,40.027,0,0,0,1.467-10.122h8.53A21.3,21.3,0,0,1,104.158,100.871Z" transform="translate(-63.984 -64.003)"/>
      </g>
    </g>
    <g id="Grupo_6" data-name="Grupo 6" transform="translate(12.069 14.803)">
      <g id="Grupo_5" data-name="Grupo 5">
        <path id="Trazado_56" data-name="Trazado 56" class="cls-2" d="M131.734,88.818a1.341,1.341,0,0,0-2.1,1.663,37.159,37.159,0,0,1,8.073,23.263,37.543,37.543,0,0,1-60.769,29.5h4.454a1.341,1.341,0,0,0,0-2.682H73.328a1.3,1.3,0,0,0-.341.07,1.179,1.179,0,0,0-.172.038c-.034.013-.059.044-.091.06a1.342,1.342,0,0,0-.339.239l-.012.008a1.243,1.243,0,0,0-.083.134,1.29,1.29,0,0,0-.188.3,1.423,1.423,0,0,0-.06.3,1.319,1.319,0,0,0-.039.2v8.045a1.341,1.341,0,0,0,2.682,0v-5.086a40.214,40.214,0,0,0,65.7-31.116A39.811,39.811,0,0,0,131.734,88.818Z" transform="translate(-72.003 -88.322)"/>
      </g>
    </g>
    <g id="Grupo_8" data-name="Grupo 8" transform="translate(0.001 0)">
      <g id="Grupo_7" data-name="Grupo 7">
        <path id="Trazado_57" data-name="Trazado 57" class="cls-2" d="M67.043,2.682A1.341,1.341,0,0,0,65.7,4.023V9.108A40.214,40.214,0,0,0,0,40.225a39.8,39.8,0,0,0,8.715,25,1.341,1.341,0,1,0,2.108-1.657l-.009-.011A37.141,37.141,0,0,1,2.683,40.225a37.543,37.543,0,0,1,60.769-29.5H59a1.341,1.341,0,1,0,0,2.682h8.058a1.305,1.305,0,0,0,.4-.082,1.053,1.053,0,0,0,.111-.024,1.527,1.527,0,0,0,.127-.086A1.3,1.3,0,0,0,68,13l.012-.008a1.252,1.252,0,0,0,.084-.134.909.909,0,0,0,.247-.6,1.34,1.34,0,0,0,.039-.2V4.023A1.341,1.341,0,0,0,67.043,2.682Z" transform="translate(-0.001 0)"/>
      </g>
    </g>
  </g>
</svg>
